<?xml version="1.0" standalone="no"?>
<!DOCTYPE svg PUBLIC "-//W3C//DTD SVG 20010904//EN"
 "http://www.w3.org/TR/2001/REC-SVG-20010904/DTD/svg10.dtd">
<svg version="1.0" xmlns="http://www.w3.org/2000/svg"
 width="700.000000pt" height="700.000000pt" viewBox="0 0 700.000000 700.000000"
 preserveAspectRatio="xMidYMid meet">
<metadata>
Created by potrace 1.11, written by Peter Selinger 2001-2013
</metadata>
<g transform="translate(0.000000,700.000000) scale(0.100000,-0.100000)"
fill="#000000" stroke="none">
<path d="M1327 6980 c-88 -28 -127 -58 -303 -234 l-162 -162 -164 162 c-233
230 -233 230 -442 23 -77 -77 -148 -152 -158 -167 -22 -34 -23 -100 -1 -132 9
-14 82 -91 162 -173 80 -81 146 -151 146 -156 0 -6 -75 -86 -166 -179 -139
-142 -172 -181 -199 -238 -55 -113 -49 -261 15 -370 31 -53 115 -138 157 -160
15 -8 28 -16 28 -17 0 -1 -36 -41 -80 -87 -45 -47 -92 -104 -105 -127 -37 -62
-58 -154 -51 -227 12 -146 31 -174 315 -459 220 -222 254 -252 319 -284 62
-31 84 -37 152 -39 89 -3 159 13 230 54 25 15 202 182 394 374 l349 348 504
-502 c276 -277 503 -503 503 -504 0 -1 -513 -515 -1140 -1142 -627 -627 -1140
-1147 -1140 -1155 0 -9 -45 -161 -101 -339 -55 -177 -104 -336 -109 -353 -10
-37 -33 -110 -104 -340 -58 -187 -64 -223 -43 -265 16 -32 73 -70 105 -70 13
0 162 41 331 91 168 50 428 126 576 170 149 44 286 85 305 90 27 9 297 273
1182 1157 l1148 1147 475 -475 475 -475 -355 -355 c-324 -326 -357 -362 -387
-425 -30 -65 -33 -78 -33 -170 0 -92 3 -105 33 -169 29 -62 60 -97 285 -322
224 -225 259 -256 319 -284 56 -26 80 -32 150 -33 154 -4 209 21 348 157 44
43 82 77 84 75 1 -2 17 -24 33 -49 56 -82 135 -142 223 -171 72 -23 204 -18
270 11 73 31 109 61 280 234 80 80 150 146 155 146 6 0 78 -68 161 -151 82
-84 164 -158 183 -166 22 -10 47 -12 75 -7 36 6 60 25 194 157 226 224 226
223 -14 463 l-156 156 176 177 c185 186 215 229 235 335 32 173 -40 322 -214
441 -19 12 -15 18 67 103 47 49 96 108 107 131 66 129 60 284 -16 405 -38 59
-490 508 -543 538 -119 69 -256 75 -378 17 -60 -29 -103 -69 -421 -386 l-355
-354 -475 475 -476 476 1312 1313 c722 721 1323 1328 1336 1347 56 84 78 202
57 305 -23 115 -53 154 -323 422 -139 138 -272 262 -297 276 -126 73 -290 73
-418 1 -35 -19 -437 -415 -1363 -1341 l-1313 -1314 -505 505 -506 506 357 357
c381 383 399 405 416 519 17 105 -2 203 -56 288 -14 23 -134 150 -267 282
-213 213 -250 245 -310 274 -57 27 -83 33 -150 36 -138 5 -216 -29 -345 -153
-43 -41 -81 -75 -85 -74 -3 0 -22 22 -42 47 -93 123 -182 172 -323 179 -53 2
-92 -2 -133 -15z m192 -277 c62 -47 84 -118 55 -174 -9 -18 -234 -251 -499
-518 -266 -267 -501 -504 -523 -527 -56 -57 -86 -74 -128 -74 -54 0 -101 27
-129 75 -27 45 -31 78 -15 122 13 35 1064 1090 1105 1109 38 18 100 12 134
-13z m764 16 c31 -16 455 -439 473 -471 20 -37 18 -87 -5 -125 -24 -38 -82
-98 -1084 -1101 -845 -846 -813 -818 -893 -792 -24 8 -105 81 -263 238 -243
241 -251 252 -236 329 5 29 144 172 933 965 510 512 941 939 957 949 34 21 85
25 118 8z m3930 -41 c33 -10 85 -56 267 -238 125 -124 235 -240 244 -259 24
-45 22 -110 -3 -157 -11 -22 -119 -137 -239 -257 l-218 -218 -327 327 c-180
179 -327 328 -327 331 0 3 101 106 225 230 259 259 278 271 378 241z m-5575
-315 l-32 -33 -103 102 -103 102 32 33 32 33 103 -102 103 -102 -32 -33z
m5118 -657 c178 -179 324 -328 324 -332 0 -3 -443 -450 -985 -993 l-985 -986
-329 329 -329 329 986 988 c543 544 989 988 990 989 2 0 150 -146 328 -324z
m-2334 -2008 c736 -739 1402 -1407 1481 -1486 l142 -142 -63 -63 -63 -62
-1483 1490 -1484 1490 57 57 c31 31 60 57 66 58 5 0 612 -604 1347 -1342z
m-142 -483 l324 -324 -1079 -1081 c-594 -594 -1084 -1079 -1089 -1077 -5 2
-154 148 -331 326 l-323 323 1077 1079 c592 593 1081 1078 1086 1079 6 0 156
-146 335 -325z m2943 -445 c31 0 484 -454 496 -497 23 -83 65 -37 -945 -1045
-514 -513 -942 -937 -951 -942 -31 -17 -81 -18 -113 -1 -17 9 -129 114 -250
235 -240 240 -254 260 -228 333 10 29 220 244 948 973 916 916 965 961 1008
948 8 -2 23 -4 35 -4z m460 -1231 c20 -23 38 -51 39 -63 3 -44 -4 -80 -20
-105 -25 -38 -1066 -1076 -1088 -1085 -39 -15 -86 -16 -113 -1 -70 35 -105
116 -80 180 17 41 1060 1099 1098 1114 70 27 113 16 164 -40z m-5743 -664
c145 -145 262 -266 260 -268 -3 -2 -93 -30 -200 -61 -107 -32 -206 -62 -220
-67 -14 -5 -94 -29 -178 -53 -84 -25 -157 -48 -162 -51 -5 -3 -2 18 6 47 22
74 67 224 126 418 54 179 88 293 88 297 0 15 52 -34 280 -262z m5558 -308
l102 -102 -30 -28 c-17 -16 -34 -27 -39 -25 -5 1 -54 46 -109 99 l-100 96 31
32 c17 17 34 31 37 31 3 0 51 -46 108 -103z"/>
</g>
</svg>
